<svg width="30" height="30" viewBox="0 0 30 30" fill="none" xmlns="http://www.w3.org/2000/svg">
<path d="M15.6755 18.7202C16.5876 19.3627 17.5438 19.9029 18.5294 20.3118C19.1414 20.5337 20.1017 19.9052 20.8078 19.4431C20.9843 19.3276 21.145 19.2225 21.2803 19.1437L21.3247 19.1187C21.9898 18.7452 22.7284 18.3305 23.6781 18.5304C24.5313 18.7056 27.4587 21.0126 28.2678 21.8303C28.7974 22.3559 29.0916 22.9108 29.1357 23.4802C29.224 25.5974 26.3848 27.9774 25.7082 28.3863C24.2665 29.4375 22.3394 29.4229 20.0152 28.3717C17.5291 27.3642 14.5575 25.247 11.689 22.6772C10.6621 21.7572 8.69016 19.8204 8.12897 19.1736C5.23099 16.0343 2.78903 12.6614 1.6416 9.93095C1.09731 8.77746 0.83252 7.71157 0.83252 6.76248C0.83252 5.828 1.09731 4.99573 1.61218 4.28027C1.9211 3.74002 4.40719 0.790569 6.59907 0.863576C7.14336 0.92198 7.70237 1.1994 8.24666 1.72505C9.07045 2.52812 11.4389 5.43377 11.6154 6.29524C11.8168 7.22339 11.3992 7.95603 11.0229 8.61609L10.9975 8.66065C10.9127 8.80716 10.7978 8.98095 10.6721 9.17095C10.2091 9.87091 9.60055 10.7908 9.81922 11.3765C10.365 12.7198 11.1446 14.0339 12.0847 15.2458C13.1279 16.4931 14.7635 18.0778 15.6755 18.7202Z" fill="white"/>
</svg>
