<svg width="36" height="13" viewBox="0 0 36 13" fill="none" xmlns="http://www.w3.org/2000/svg">
<path d="M14.8769 5.88293C13.7777 6.07357 12.7196 6.36769 11.7335 6.77552C11.1439 7.05132 10.9092 8.17479 10.7367 9.00085C10.6935 9.20733 10.6543 9.39523 10.6143 9.54667L10.6006 9.5957C10.3944 10.3301 10.1654 11.1457 9.35246 11.6758C8.62525 12.1552 4.92396 12.5939 3.77368 12.5879C3.02752 12.5906 2.42714 12.4063 1.99327 12.0349C0.433789 10.6002 0.758448 6.90973 0.947848 6.14215C1.22387 4.37938 2.59685 3.02705 4.98373 2.12692C7.45406 1.08139 11.0523 0.477266 14.8978 0.266021C16.2744 0.190403 19.0383 0.165559 19.8926 0.226152C24.1616 0.396768 28.2733 1.05504 31.0153 2.17439C32.2159 2.60517 33.1568 3.17163 33.8279 3.84273C34.4887 4.50351 34.8899 5.27925 35.0318 6.14923C35.1954 6.74968 35.523 10.5932 33.9215 12.0915C33.4953 12.435 32.9039 12.6341 32.1473 12.6473C30.997 12.662 27.2676 12.2821 26.5337 11.7978C25.7349 11.2839 25.5122 10.4705 25.3115 9.73774L25.2979 9.68828C25.2543 9.52472 25.2127 9.32054 25.1672 9.09731C24.9997 8.27495 24.7795 7.19422 24.2108 6.9347C22.875 6.37074 21.3945 5.99283 19.8728 5.80057C18.2532 5.65625 15.9761 5.6923 14.8769 5.88293Z" fill="white"/>
</svg>
