<svg width="26" height="26" viewBox="0 0 26 26" fill="none" xmlns="http://www.w3.org/2000/svg">
<path d="M20.0089 18.2325L20.4314 21.6559C20.5398 22.555 19.5756 23.1834 18.8064 22.7175L15.0581 20.4859C14.7981 20.3342 14.7331 20.0092 14.8739 19.7492C15.4156 18.7525 15.7081 17.6259 15.7081 16.4992C15.7081 12.5342 12.3064 9.30585 8.12476 9.30585C7.26893 9.30585 6.43476 9.43585 5.65476 9.69585C5.25393 9.82585 4.86393 9.45752 4.96143 9.04585C5.94726 5.10252 9.73893 2.16669 14.2673 2.16669C19.5539 2.16669 23.8331 6.16419 23.8331 11.0934C23.8331 14.0184 22.3273 16.6075 20.0089 18.2325Z" fill="#292D32"/>
<path d="M14.0837 16.4992C14.0837 17.7883 13.607 18.98 12.8053 19.9225C11.7328 21.2225 10.032 22.0567 8.12533 22.0567L5.29783 23.7358C4.82116 24.0283 4.21449 23.6275 4.27949 23.075L4.55033 20.9408C3.09866 19.9333 2.16699 18.3192 2.16699 16.4992C2.16699 14.5925 3.18533 12.9133 4.74533 11.9167C5.70949 11.2883 6.86866 10.9308 8.12533 10.9308C11.4187 10.9308 14.0837 13.4225 14.0837 16.4992Z" fill="#292D32"/>
</svg>
