<svg width="29" height="29" viewBox="0 0 29 29" fill="none" xmlns="http://www.w3.org/2000/svg">
<path d="M19.8408 7.7575V9.15917L11.0442 17.9558C9.88418 16.9046 9.15918 15.3579 9.15918 13.7025V7.7575C9.15918 5.26834 10.8508 3.20209 13.1467 2.61C13.3763 2.54959 13.5938 2.74292 13.5938 2.9725V4.83334C13.5938 5.32875 14.0046 5.73959 14.5 5.73959C14.9954 5.73959 15.4063 5.32875 15.4063 4.83334V2.9725C15.4063 2.74292 15.6238 2.54959 15.8533 2.61C18.1492 3.20209 19.8408 5.26834 19.8408 7.7575Z" fill="#292D32"/>
<path d="M23.9367 11.8538V13.775C23.9367 18.6929 20.1546 22.7409 15.3455 23.1638V25.7375C15.3455 26.2088 14.9709 26.5834 14.4996 26.5834C14.0284 26.5834 13.6538 26.2088 13.6538 25.7375V23.1638C12.3367 23.0429 11.0921 22.6563 9.98047 22.04L11.2251 20.7954C12.2159 21.2546 13.3276 21.5204 14.4996 21.5204C18.7771 21.5204 22.2571 18.0404 22.2571 13.775V11.8538C22.2571 11.3946 22.6317 11.02 23.103 11.02C23.5621 11.02 23.9367 11.3946 23.9367 11.8538Z" fill="#292D32"/>
<path d="M19.8409 12.18V13.9321C19.8409 17.0496 17.1584 19.5508 13.9684 19.2487C13.63 19.2125 13.2917 19.1521 12.9775 19.0433L19.8409 12.18Z" fill="#292D32"/>
<path d="M26.3059 2.6946C25.9434 2.3321 25.3513 2.3321 24.9888 2.6946L8.73676 18.9467C7.49217 17.5813 6.74301 15.7688 6.74301 13.775V11.8538C6.74301 11.3946 6.36842 11.02 5.89717 11.02C5.43801 11.02 5.06342 11.3946 5.06342 11.8538V13.775C5.06342 16.2279 6.00592 18.4634 7.54051 20.1429L2.68301 25.0004C2.32051 25.3629 2.32051 25.955 2.68301 26.3175C2.87634 26.4867 3.10592 26.5834 3.34759 26.5834C3.58926 26.5834 3.81884 26.4867 4.00009 26.3054L26.3059 3.9996C26.6805 3.6371 26.6805 3.0571 26.3059 2.6946Z" fill="#292D32"/>
</svg>
