<svg width="27" height="27" viewBox="0 0 27 27" fill="none" xmlns="http://www.w3.org/2000/svg">
<path opacity="0.4" d="M19.9575 8.51624C19.9688 8.59499 19.9688 8.68498 19.9575 8.76373C19.9575 8.68498 19.9463 8.60623 19.9463 8.52749L19.9575 8.51624Z" fill="#292D32"/>
<path d="M19.4402 7.38L4.30898 22.5112C2.73398 21.51 2.11523 19.7213 2.11523 18V9C2.11523 5.1525 3.61148 3.65625 7.45898 3.65625H14.209C17.4602 3.65625 19.024 4.725 19.4402 7.38Z" fill="#292D32"/>
<path d="M24.075 2.50874C23.7375 2.17124 23.1862 2.17124 22.8487 2.50874L2.08125 23.2762C1.74375 23.6137 1.74375 24.165 2.08125 24.5025C2.25 24.66 2.475 24.75 2.68875 24.75C2.91375 24.75 3.1275 24.66 3.29625 24.4912L24.075 3.72374C24.4125 3.38624 24.4125 2.84624 24.075 2.50874Z" fill="#292D32"/>
<path d="M25.1772 9.42748V17.5725C25.1772 19.1812 24.3897 19.8225 23.9397 20.0587C23.7259 20.1712 23.3884 20.295 22.9722 20.295C22.4884 20.295 21.8922 20.1375 21.1947 19.6425L19.5297 18.4725C19.4509 20.9587 18.6634 22.3762 16.8747 22.9725C16.1547 23.2312 15.2659 23.3437 14.1972 23.3437H7.44719C7.17719 23.3437 6.91844 23.3325 6.64844 23.2987L16.8747 13.0837L23.2309 6.72748C23.5234 6.74998 23.7597 6.83998 23.9397 6.94123C24.3897 7.17748 25.1772 7.81873 25.1772 9.42748Z" fill="#292D32"/>
</svg>
